# This file uses centimeters as units for non-parametric coordinates.

mtllib hexagon.mtl
g default
v -0.999128 -0.316846 0.622222
v 0.999128 -0.316846 0.622222
v -0.999128 0.316848 0.622222
v 0.999128 0.316848 0.622222
v -0.999128 0.316848 -0.622222
v 0.999128 0.316848 -0.622222
v -0.999128 -0.316846 -0.622222
v 0.999128 -0.316846 -0.622222
v 0.000000 0.000000 1.122669
v 0.000000 -0.316846 1.122669
v 0.999128 0.000000 0.622222
v 0.000000 0.316848 1.122669
v -0.999128 0.000000 0.622222
v -0.000000 0.000000 -1.118056
v -0.000000 0.316848 -1.118056
v 0.999128 0.000000 -0.622222
v -0.000000 -0.316846 -1.118056
v -0.999128 0.000000 -0.622222
vt 0.375000 0.000000
vt 0.625000 0.000000
vt 0.500000 0.097222
vt 0.472222 0.125000
vt 0.375000 0.500000
vt 0.625000 0.500000
vt 0.375000 0.750000
vt 0.625000 0.750000
vt 0.375000 1.000000
vt 0.625000 1.000000
vt 0.875000 0.000000
vt 0.875000 0.250000
vt 0.125000 0.000000
vt 0.125000 0.250000
vt 0.500000 0.125000
vt 0.500000 0.000000
vt 0.500000 1.000000
vt 0.625000 0.125000
vt 0.500000 0.250000
vt 0.375000 0.125000
vt 0.500000 0.625000
vt 0.500000 0.500000
vt 0.625000 0.625000
vt 0.875000 0.125000
vt 0.500000 0.750000
vt 0.125000 0.125000
vt 0.375000 0.625000
vn -0.948419 0.000000 0.317020
vn -0.186348 -0.980508 0.062283
vn 0.000000 -0.987466 0.157833
vn 0.000000 0.000000 1.000000
vn -0.186348 0.980508 0.062283
vn 0.000000 0.987466 0.157834
vn 0.186348 0.980508 0.062283
vn 0.186431 0.980484 -0.062407
vn 0.000000 0.987589 -0.157060
vn -0.186431 0.980484 -0.062407
vn -0.948272 0.000000 -0.317460
vn 0.000000 0.000000 -1.000000
vn -0.186431 -0.980484 -0.062407
vn 0.000000 -0.987589 -0.157059
vn 0.186431 -0.980484 -0.062407
vn 0.186348 -0.980508 0.062283
vn 0.948272 0.000000 -0.317460
vn 0.948419 0.000000 0.317020
s 1
g pCube1
usemtl initialShadingGroup
f 13/20/1 1/1/2 10/16/3 9/15/4
f 3/3/5 12/19/6 4/4/7 6/6/8 15/22/9 5/5/10
f 18/27/11 5/5/10 15/22/9 14/21/12
f 7/7/13 17/25/14 8/8/15 2/10/16 10/17/3 1/9/2
f 2/2/16 8/11/15 16/24/17 6/12/8 4/4/7 11/18/18
f 7/13/13 1/1/2 13/20/1 3/3/5 5/14/10 18/26/11
f 10/16/3 2/2/16 11/18/18 9/15/4
f 11/18/18 4/4/7 12/19/6 9/15/4
f 12/19/6 3/3/5 13/20/1 9/15/4
f 15/22/9 6/6/8 16/23/17 14/21/12
f 16/23/17 8/8/15 17/25/14 14/21/12
f 17/25/14 7/7/13 18/27/11 14/21/12
