# This file uses centimeters as units for non-parametric coordinates.

mtllib starRing.mtl
g default
v -0.500000 1.005379 -0.500000
v -0.500000 1.005379 0.500000
v 0.500000 1.005379 0.500000
v 0.500000 1.005379 -0.500000
v 0.000000 1.894930 0.000000
vt 0.500000 0.000000
vt 0.250000 0.250000
vt 0.500000 0.500000
vt 0.750000 0.250000
vt 0.250000 0.500000
vt 0.375000 0.500000
vt 0.500000 0.500000
vt 0.625000 0.500000
vt 0.750000 0.500000
vt 0.500000 1.000000
vn 0.000000 -1.000000 0.000000
vn 0.000000 -1.000000 0.000000
vn 0.000000 -1.000000 0.000000
vn 0.000000 -1.000000 0.000000
vn -0.871732 0.489984 -0.000000
vn -0.871732 0.489984 -0.000000
vn -0.871732 0.489984 -0.000000
vn -0.000000 0.489984 0.871732
vn -0.000000 0.489984 0.871732
vn -0.000000 0.489984 0.871732
vn 0.871732 0.489984 -0.000000
vn 0.871732 0.489984 -0.000000
vn 0.871732 0.489984 -0.000000
vn 0.000000 0.489984 -0.871732
vn 0.000000 0.489984 -0.871732
vn 0.000000 0.489984 -0.871732
s off
g pPyramid1
usemtl initialShadingGroup
f 1/1/1 4/4/2 3/3/3 2/2/4
f 1/5/5 2/6/6 5/10/7
f 2/6/8 3/7/9 5/10/10
f 3/7/11 4/8/12 5/10/13
f 4/8/14 1/9/15 5/10/16
g default
v -1.005318 0.143889 -0.500000
v -1.005318 0.143889 0.500000
v -0.505318 1.009914 0.500000
v -0.505318 1.009914 -0.500000
v -1.525692 1.021677 0.000000
vt 0.500000 0.000000
vt 0.250000 0.250000
vt 0.500000 0.500000
vt 0.750000 0.250000
vt 0.250000 0.500000
vt 0.375000 0.500000
vt 0.500000 0.500000
vt 0.625000 0.500000
vt 0.750000 0.500000
vt 0.500000 1.000000
vn 0.866025 -0.500000 0.000000
vn 0.866025 -0.500000 0.000000
vn 0.866025 -0.500000 0.000000
vn 0.866025 -0.500000 0.000000
vn -0.860204 -0.509950 -0.000000
vn -0.860204 -0.509950 -0.000000
vn -0.860204 -0.509950 -0.000000
vn -0.424338 0.244992 0.871732
vn -0.424338 0.244992 0.871732
vn -0.424339 0.244992 0.871732
vn 0.011527 0.999934 -0.000000
vn 0.011527 0.999934 -0.000000
vn 0.011527 0.999934 -0.000000
vn -0.424338 0.244992 -0.871731
vn -0.424338 0.244992 -0.871731
vn -0.424338 0.244992 -0.871731
s off
g pPyramid2
usemtl initialShadingGroup
f 6/11/17 9/14/18 8/13/19 7/12/20
f 6/15/21 7/16/22 10/20/23
f 7/16/24 8/17/25 10/20/26
f 8/17/27 9/18/28 10/20/29
f 9/18/30 6/19/31 10/20/32
g default
v 0.488251 1.015826 0.500000
v 0.988251 0.149801 0.500000
v 0.988251 0.149801 -0.500000
v 0.488251 1.015826 -0.500000
v 1.508625 1.027589 0.000000
vt 0.500000 0.000000
vt 0.250000 0.250000
vt 0.500000 0.500000
vt 0.750000 0.250000
vt 0.250000 0.500000
vt 0.375000 0.500000
vt 0.500000 0.500000
vt 0.625000 0.500000
vt 0.750000 0.500000
vt 0.500000 1.000000
vn -0.866025 -0.500000 -0.000000
vn -0.866025 -0.500000 -0.000000
vn -0.866025 -0.500000 -0.000000
vn -0.866025 -0.500000 -0.000000
vn 0.424338 0.244992 0.871732
vn 0.424338 0.244992 0.871732
vn 0.424338 0.244992 0.871732
vn 0.860204 -0.509950 0.000000
vn 0.860204 -0.509950 0.000000
vn 0.860204 -0.509950 0.000000
vn 0.424338 0.244992 -0.871732
vn 0.424338 0.244992 -0.871732
vn 0.424338 0.244992 -0.871732
vn -0.011527 0.999934 -0.000000
vn -0.011527 0.999934 -0.000000
vn -0.011527 0.999934 -0.000000
s off
g pPyramid3
usemtl initialShadingGroup
f 11/21/33 14/24/34 13/23/35 12/22/36
f 11/25/37 12/26/38 15/30/39
f 12/26/40 13/27/41 15/30/42
f 13/27/43 14/28/44 15/30/45
f 14/28/46 11/29/47 15/30/48
g default
v 0.500000 -0.693927 0.500000
v -0.500000 -0.693927 0.500000
v -0.500000 -0.693927 -0.500000
v 0.500000 -0.693927 -0.500000
v 0.000000 -1.583479 0.000000
vt 0.500000 0.000000
vt 0.250000 0.250000
vt 0.500000 0.500000
vt 0.750000 0.250000
vt 0.250000 0.500000
vt 0.375000 0.500000
vt 0.500000 0.500000
vt 0.625000 0.500000
vt 0.750000 0.500000
vt 0.500000 1.000000
vn -0.000000 1.000000 -0.000000
vn -0.000000 1.000000 -0.000000
vn -0.000000 1.000000 -0.000000
vn -0.000000 1.000000 -0.000000
vn 0.000000 -0.489984 0.871732
vn 0.000000 -0.489984 0.871732
vn 0.000000 -0.489984 0.871732
vn -0.871732 -0.489984 0.000000
vn -0.871732 -0.489984 0.000000
vn -0.871732 -0.489984 0.000000
vn 0.000000 -0.489984 -0.871732
vn 0.000000 -0.489984 -0.871732
vn 0.000000 -0.489984 -0.871732
vn 0.871732 -0.489984 -0.000000
vn 0.871732 -0.489984 -0.000000
vn 0.871732 -0.489984 -0.000000
s off
g pPyramid4
usemtl initialShadingGroup
f 16/31/49 19/34/50 18/33/51 17/32/52
f 16/35/53 17/36/54 20/40/55
f 17/36/56 18/37/57 20/40/58
f 18/37/59 19/38/60 20/40/61
f 19/38/62 16/39/63 20/40/64
g default
v 0.988251 0.157261 0.500000
v 0.488251 -0.708765 0.500000
v 0.488251 -0.708765 -0.500000
v 0.988251 0.157261 -0.500000
v 1.508625 -0.720528 0.000000
vt 0.500000 0.000000
vt 0.250000 0.250000
vt 0.500000 0.500000
vt 0.750000 0.250000
vt 0.250000 0.500000
vt 0.375000 0.500000
vt 0.500000 0.500000
vt 0.625000 0.500000
vt 0.750000 0.500000
vt 0.500000 1.000000
vn -0.866025 0.500000 -0.000000
vn -0.866025 0.500000 -0.000000
vn -0.866025 0.500000 -0.000000
vn -0.866025 0.500000 -0.000000
vn 0.424338 -0.244992 0.871732
vn 0.424338 -0.244992 0.871732
vn 0.424339 -0.244992 0.871732
vn -0.011527 -0.999934 0.000000
vn -0.011527 -0.999934 0.000000
vn -0.011527 -0.999934 0.000000
vn 0.424338 -0.244992 -0.871732
vn 0.424338 -0.244992 -0.871732
vn 0.424338 -0.244992 -0.871732
vn 0.860204 0.509950 -0.000000
vn 0.860204 0.509950 -0.000000
vn 0.860204 0.509950 -0.000000
s off
g pPyramid5
usemtl initialShadingGroup
f 21/41/65 24/44/66 23/43/67 22/42/68
f 21/45/69 22/46/70 25/50/71
f 22/46/72 23/47/73 25/50/74
f 23/47/75 24/48/76 25/50/77
f 24/48/78 21/49/79 25/50/80
g default
v -0.505318 -0.679026 -0.500000
v -0.505318 -0.679026 0.500000
v -1.005318 0.186999 0.500000
v -1.005318 0.186999 -0.500000
v -1.525692 -0.690789 0.000000
vt 0.500000 0.000000
vt 0.250000 0.250000
vt 0.500000 0.500000
vt 0.750000 0.250000
vt 0.250000 0.500000
vt 0.375000 0.500000
vt 0.500000 0.500000
vt 0.625000 0.500000
vt 0.750000 0.500000
vt 0.500000 1.000000
vn 0.866025 0.500000 0.000000
vn 0.866025 0.500000 0.000000
vn 0.866025 0.500000 0.000000
vn 0.866025 0.500000 0.000000
vn 0.011527 -0.999934 -0.000000
vn 0.011527 -0.999934 -0.000000
vn 0.011527 -0.999934 -0.000000
vn -0.424338 -0.244992 0.871732
vn -0.424338 -0.244992 0.871732
vn -0.424338 -0.244992 0.871732
vn -0.860204 0.509950 -0.000000
vn -0.860204 0.509950 -0.000000
vn -0.860204 0.509950 -0.000000
vn -0.424339 -0.244992 -0.871732
vn -0.424339 -0.244992 -0.871732
vn -0.424339 -0.244992 -0.871732
s off
g pPyramid6
usemtl initialShadingGroup
f 26/51/81 29/54/82 28/53/83 27/52/84
f 26/55/85 27/56/86 30/60/87
f 27/56/88 28/57/89 30/60/90
f 28/57/91 29/58/92 30/60/93
f 29/58/94 26/59/95 30/60/96
g default
v -0.500000 1.005379 -0.500000
v -0.500000 1.005379 0.500000
v 0.500000 1.005379 0.500000
v 0.500000 1.005379 -0.500000
v 0.000000 1.894930 0.000000
vt 0.500000 0.000000
vt 0.250000 0.250000
vt 0.500000 0.500000
vt 0.750000 0.250000
vt 0.250000 0.500000
vt 0.375000 0.500000
vt 0.500000 0.500000
vt 0.625000 0.500000
vt 0.750000 0.500000
vt 0.500000 1.000000
vn 0.000000 -1.000000 0.000000
vn 0.000000 -1.000000 0.000000
vn 0.000000 -1.000000 0.000000
vn 0.000000 -1.000000 0.000000
vn -0.871732 0.489984 -0.000000
vn -0.871732 0.489984 -0.000000
vn -0.871732 0.489984 -0.000000
vn -0.000000 0.489984 0.871732
vn -0.000000 0.489984 0.871732
vn -0.000000 0.489984 0.871732
vn 0.871732 0.489984 -0.000000
vn 0.871732 0.489984 -0.000000
vn 0.871732 0.489984 -0.000000
vn 0.000000 0.489984 -0.871732
vn 0.000000 0.489984 -0.871732
vn 0.000000 0.489984 -0.871732
s off
g pPyramid7
usemtl initialShadingGroup
f 31/61/97 34/64/98 33/63/99 32/62/100
f 31/65/101 32/66/102 35/70/103
f 32/66/104 33/67/105 35/70/106
f 33/67/107 34/68/108 35/70/109
f 34/68/110 31/69/111 35/70/112
g default
v -0.707107 1.005379 -0.000000
v -0.000000 1.005379 0.707107
v 0.707107 1.005379 0.000000
v 0.000000 1.005379 -0.707107
v 0.000000 1.894930 0.000000
vt 0.500000 0.000000
vt 0.250000 0.250000
vt 0.500000 0.500000
vt 0.750000 0.250000
vt 0.250000 0.500000
vt 0.375000 0.500000
vt 0.500000 0.500000
vt 0.625000 0.500000
vt 0.750000 0.500000
vt 0.500000 1.000000
vn 0.000000 -1.000000 0.000000
vn 0.000000 -1.000000 0.000000
vn 0.000000 -1.000000 0.000000
vn 0.000000 -1.000000 0.000000
vn -0.616407 0.489984 0.616407
vn -0.616407 0.489984 0.616407
vn -0.616407 0.489984 0.616407
vn 0.616407 0.489984 0.616407
vn 0.616407 0.489984 0.616407
vn 0.616407 0.489984 0.616407
vn 0.616407 0.489984 -0.616407
vn 0.616407 0.489984 -0.616407
vn 0.616407 0.489984 -0.616407
vn -0.616407 0.489984 -0.616407
vn -0.616407 0.489984 -0.616407
vn -0.616407 0.489984 -0.616407
s off
g pPyramid8
usemtl initialShadingGroup
f 36/71/113 39/74/114 38/73/115 37/72/116
f 36/75/117 37/76/118 40/80/119
f 37/76/120 38/77/121 40/80/122
f 38/77/123 39/78/124 40/80/125
f 39/78/126 36/79/127 40/80/128
g default
v -1.108871 -0.035471 -0.000000
v -0.755318 0.576902 0.707107
v -0.401764 1.189274 0.000000
v -0.755318 0.576902 -0.707107
v -1.525692 1.021677 0.000000
vt 0.500000 0.000000
vt 0.250000 0.250000
vt 0.500000 0.500000
vt 0.750000 0.250000
vt 0.250000 0.500000
vt 0.375000 0.500000
vt 0.500000 0.500000
vt 0.625000 0.500000
vt 0.750000 0.500000
vt 0.500000 1.000000
vn 0.866025 -0.500000 0.000000
vn 0.866025 -0.500000 0.000000
vn 0.866025 -0.500000 0.000000
vn 0.866025 -0.500000 0.000000
vn -0.732542 -0.288833 0.616407
vn -0.732542 -0.288833 0.616407
vn -0.732542 -0.288833 0.616407
vn -0.116135 0.778816 0.616407
vn -0.116135 0.778816 0.616407
vn -0.116135 0.778816 0.616407
vn -0.116135 0.778816 -0.616407
vn -0.116135 0.778816 -0.616407
vn -0.116135 0.778816 -0.616407
vn -0.732542 -0.288832 -0.616407
vn -0.732542 -0.288832 -0.616407
vn -0.732542 -0.288832 -0.616407
s off
g pPyramid9
usemtl initialShadingGroup
f 41/81/129 44/84/130 43/83/131 42/82/132
f 41/85/133 42/86/134 45/90/135
f 42/86/136 43/87/137 45/90/138
f 43/87/139 44/88/140 45/90/141
f 44/88/142 41/89/143 45/90/144
g default
v 0.384697 1.195186 -0.000000
v 0.738251 0.582814 0.707107
v 1.091804 -0.029559 0.000000
v 0.738251 0.582814 -0.707107
v 1.508625 1.027589 0.000000
vt 0.500000 0.000000
vt 0.250000 0.250000
vt 0.500000 0.500000
vt 0.750000 0.250000
vt 0.250000 0.500000
vt 0.375000 0.500000
vt 0.500000 0.500000
vt 0.625000 0.500000
vt 0.750000 0.500000
vt 0.500000 1.000000
vn -0.866025 -0.500000 -0.000000
vn -0.866025 -0.500000 -0.000000
vn -0.866025 -0.500000 -0.000000
vn -0.866025 -0.500000 -0.000000
vn 0.116135 0.778816 0.616407
vn 0.116135 0.778816 0.616407
vn 0.116135 0.778816 0.616407
vn 0.732542 -0.288832 0.616407
vn 0.732542 -0.288832 0.616407
vn 0.732542 -0.288832 0.616407
vn 0.732542 -0.288832 -0.616407
vn 0.732542 -0.288832 -0.616407
vn 0.732542 -0.288832 -0.616407
vn 0.116135 0.778816 -0.616407
vn 0.116135 0.778816 -0.616407
vn 0.116135 0.778816 -0.616407
s off
g pPyramid10
usemtl initialShadingGroup
f 46/91/145 49/94/146 48/93/147 47/92/148
f 46/95/149 47/96/150 50/100/151
f 47/96/152 48/97/153 50/100/154
f 48/97/155 49/98/156 50/100/157
f 49/98/158 46/99/159 50/100/160
g default
v 0.707107 -0.693927 -0.000000
v 0.000000 -0.693927 0.707107
v -0.707107 -0.693927 0.000000
v 0.000000 -0.693927 -0.707107
v 0.000000 -1.583479 0.000000
vt 0.500000 0.000000
vt 0.250000 0.250000
vt 0.500000 0.500000
vt 0.750000 0.250000
vt 0.250000 0.500000
vt 0.375000 0.500000
vt 0.500000 0.500000
vt 0.625000 0.500000
vt 0.750000 0.500000
vt 0.500000 1.000000
vn -0.000000 1.000000 -0.000000
vn -0.000000 1.000000 -0.000000
vn -0.000000 1.000000 -0.000000
vn -0.000000 1.000000 -0.000000
vn 0.616407 -0.489984 0.616407
vn 0.616407 -0.489984 0.616407
vn 0.616407 -0.489984 0.616407
vn -0.616407 -0.489984 0.616407
vn -0.616407 -0.489984 0.616407
vn -0.616407 -0.489984 0.616407
vn -0.616407 -0.489984 -0.616407
vn -0.616407 -0.489984 -0.616407
vn -0.616407 -0.489984 -0.616407
vn 0.616407 -0.489984 -0.616407
vn 0.616407 -0.489984 -0.616407
vn 0.616407 -0.489984 -0.616407
s off
g pPyramid11
usemtl initialShadingGroup
f 51/101/161 54/104/162 53/103/163 52/102/164
f 51/105/165 52/106/166 55/110/167
f 52/106/168 53/107/169 55/110/170
f 53/107/171 54/108/172 55/110/173
f 54/108/174 51/109/175 55/110/176
g default
v 1.091804 0.336620 -0.000000
v 0.738251 -0.275752 0.707107
v 0.384697 -0.888125 0.000000
v 0.738251 -0.275752 -0.707107
v 1.508625 -0.720528 0.000000
vt 0.500000 0.000000
vt 0.250000 0.250000
vt 0.500000 0.500000
vt 0.750000 0.250000
vt 0.250000 0.500000
vt 0.375000 0.500000
vt 0.500000 0.500000
vt 0.625000 0.500000
vt 0.750000 0.500000
vt 0.500000 1.000000
vn -0.866025 0.500000 0.000000
vn -0.866025 0.500000 0.000000
vn -0.866025 0.500000 0.000000
vn -0.866025 0.500000 0.000000
vn 0.732542 0.288833 0.616407
vn 0.732542 0.288833 0.616407
vn 0.732542 0.288833 0.616407
vn 0.116135 -0.778816 0.616407
vn 0.116135 -0.778816 0.616407
vn 0.116135 -0.778816 0.616407
vn 0.116135 -0.778816 -0.616407
vn 0.116135 -0.778816 -0.616407
vn 0.116135 -0.778816 -0.616407
vn 0.732542 0.288832 -0.616407
vn 0.732542 0.288832 -0.616407
vn 0.732542 0.288832 -0.616407
s off
g pPyramid12
usemtl initialShadingGroup
f 56/111/177 59/114/178 58/113/179 57/112/180
f 56/115/181 57/116/182 60/120/183
f 57/116/184 58/117/185 60/120/186
f 58/117/187 59/118/188 60/120/189
f 59/118/190 56/119/191 60/120/192
g default
v -0.401764 -0.858386 -0.000000
v -0.755318 -0.246014 0.707107
v -1.108871 0.366359 0.000000
v -0.755318 -0.246013 -0.707107
v -1.525692 -0.690789 0.000000
vt 0.500000 0.000000
vt 0.250000 0.250000
vt 0.500000 0.500000
vt 0.750000 0.250000
vt 0.250000 0.500000
vt 0.375000 0.500000
vt 0.500000 0.500000
vt 0.625000 0.500000
vt 0.750000 0.500000
vt 0.500000 1.000000
vn 0.866025 0.500000 -0.000000
vn 0.866025 0.500000 -0.000000
vn 0.866025 0.500000 -0.000000
vn 0.866025 0.500000 -0.000000
vn -0.116135 -0.778816 0.616407
vn -0.116135 -0.778816 0.616407
vn -0.116135 -0.778816 0.616407
vn -0.732542 0.288832 0.616407
vn -0.732542 0.288832 0.616407
vn -0.732542 0.288832 0.616407
vn -0.732542 0.288832 -0.616407
vn -0.732542 0.288832 -0.616407
vn -0.732542 0.288832 -0.616407
vn -0.116135 -0.778816 -0.616407
vn -0.116135 -0.778816 -0.616407
vn -0.116135 -0.778816 -0.616407
s off
g pPyramid13
usemtl initialShadingGroup
f 61/121/193 64/124/194 63/123/195 62/122/196
f 61/125/197 62/126/198 65/130/199
f 62/126/200 63/127/201 65/130/202
f 63/127/203 64/128/204 65/130/205
f 64/128/206 61/129/207 65/130/208
g default
v -0.707107 1.005379 -0.000000
v -0.000000 1.005379 0.707107
v 0.707107 1.005379 0.000000
v 0.000000 1.005379 -0.707107
v 0.000000 1.894930 0.000000
vt 0.500000 0.000000
vt 0.250000 0.250000
vt 0.500000 0.500000
vt 0.750000 0.250000
vt 0.250000 0.500000
vt 0.375000 0.500000
vt 0.500000 0.500000
vt 0.625000 0.500000
vt 0.750000 0.500000
vt 0.500000 1.000000
vn 0.000000 -1.000000 0.000000
vn 0.000000 -1.000000 0.000000
vn 0.000000 -1.000000 0.000000
vn 0.000000 -1.000000 0.000000
vn -0.616407 0.489984 0.616407
vn -0.616407 0.489984 0.616407
vn -0.616407 0.489984 0.616407
vn 0.616407 0.489984 0.616407
vn 0.616407 0.489984 0.616407
vn 0.616407 0.489984 0.616407
vn 0.616407 0.489984 -0.616407
vn 0.616407 0.489984 -0.616407
vn 0.616407 0.489984 -0.616407
vn -0.616407 0.489984 -0.616407
vn -0.616407 0.489984 -0.616407
vn -0.616407 0.489984 -0.616407
s off
g pPyramid14
usemtl initialShadingGroup
f 66/131/209 69/134/210 68/133/211 67/132/212
f 66/135/213 67/136/214 70/140/215
f 67/136/216 68/137/217 70/140/218
f 68/137/219 69/138/220 70/140/221
f 69/138/222 66/139/223 70/140/224
